M48
INCH,TZ
T1C0.025
T2C0.032
T3C0.047
T4C0.050
T5C0.059
T6C0.079
T7C0.120
T8C0.157
%
G90
G05
T1
X34500Y-16500
X41000Y-36000
X42000Y-35000
X42500Y-21000
X42500Y-29000
X42500Y-36500
X45000Y-11500
X46000Y-30000
X48000Y-4000
X48000Y-14500
X48500Y-27500
X51500Y-2000
X51500Y-37500
X52000Y-36000
X53500Y-17000
X53500Y-44500
X56500Y-7000
X60500Y-36500
X61000Y-9000
X61500Y-17000
X62000Y-12000
X63000Y-62500
X64000Y-10000
X66000Y-24000
X70000Y-28500
X71500Y-7000
X72500Y-16000
X73000Y-18500
X73500Y-11500
X74500Y-18000
X74500Y-23500
X75000Y-50500
X76000Y-8000
X76500Y-3000
X78000Y-21000
X78000Y-28500
X78000Y-79000
X79500Y-10500
X81500Y-74000
X81500Y-75500
X82000Y-28500
X82500Y-19000
X85500Y-17500
X86000Y-15000
X87500Y-32000
X87500Y-50000
X89000Y-56000
X91000Y-34000
X93000Y-62000
T2
X29500Y-20000
X29500Y-22000
X31500Y-1500
X32500Y-1500
X34500Y-20000
X34500Y-22000
X35500Y-23500
X35500Y-26500
X35500Y-32000
X35500Y-33000
X35500Y-35000
X35500Y-38000
X36000Y-17000
X36000Y-41500
X36000Y-42500
X36000Y-45000
X36000Y-48000
X36000Y-65500
X36000Y-68500
X36000Y-71000
X36000Y-72000
X37000Y-17000
X38000Y-17000
X39500Y-20000
X39500Y-22000
X43000Y-2000
X44000Y-2000
X44500Y-20000
X44500Y-22000
X45000Y-2000
X45500Y-32000
X45500Y-33000
X45500Y-34500
X45500Y-37500
X45500Y-40500
X45500Y-41500
X46000Y-2000
X46000Y-45000
X46000Y-48000
X46000Y-65500
X46000Y-68500
X46000Y-71000
X46000Y-72000
X47000Y-2000
X47000Y-19000
X47000Y-22000
X48000Y-2000
X48500Y-20000
X48500Y-22000
X53500Y-20000
X53500Y-22000
X54500Y-23500
X54500Y-26500
X54500Y-32000
X54500Y-33000
X54500Y-34500
X54500Y-37500
X55000Y-41500
X55000Y-42500
X55000Y-45000
X55000Y-48000
X55000Y-65500
X55000Y-68500
X55000Y-71000
X55000Y-72000
X55500Y-17000
X56500Y-17000
X57500Y-17000
X57500Y-20000
X57500Y-22000
X57500Y-78000
X57500Y-80000
X58500Y-17000
X59500Y-5000
X59500Y-6000
X59500Y-7000
X59500Y-8000
X59500Y-12000
X59500Y-13000
X59500Y-14000
X59500Y-15000
X62500Y-20000
X62500Y-22000
X62500Y-78000
X62500Y-80000
X62500Y-82500
X63500Y-23500
X63500Y-26500
X63500Y-45500
X63500Y-48500
X64000Y-32000
X64000Y-33000
X64000Y-34500
X64000Y-37500
X64000Y-42000
X64000Y-43000
X64000Y-65500
X64000Y-68500
X64000Y-71000
X64000Y-72000
X65500Y-82500
X67000Y-20000
X67000Y-22000
X67000Y-78000
X67000Y-80000
X68500Y-7500
X68500Y-8500
X68500Y-11500
X68500Y-13000
X68500Y-16000
X69500Y-11500
X69500Y-13000
X69500Y-16000
X70500Y-13000
X70500Y-16000
X72000Y-20000
X72000Y-22000
X72000Y-78000
X72000Y-80000
X72000Y-82500
X72500Y-8000
X72500Y-9000
X73000Y-23500
X73000Y-26500
X73000Y-42000
X73000Y-43000
X73000Y-45500
X73000Y-48500
X73500Y-32000
X73500Y-33000
X73500Y-34500
X73500Y-37500
X73500Y-65500
X73500Y-68500
X73500Y-71000
X73500Y-72000
X75000Y-82500
X76000Y-20000
X76000Y-22000
X76000Y-78000
X76000Y-80000
X76500Y-13000
X76500Y-16000
X77500Y-8000
X77500Y-9000
X77500Y-13000
X77500Y-16000
X78500Y-13000
X78500Y-16000
X79500Y-13000
X79500Y-16000
X80500Y-13000
X80500Y-16000
X81000Y-20000
X81000Y-22000
X81000Y-78000
X81000Y-80000
X81000Y-82500
X81500Y-8000
X81500Y-9000
X81500Y-13000
X81500Y-16000
X82000Y-23500
X82000Y-26500
X82000Y-32000
X82000Y-33000
X82000Y-34500
X82000Y-37500
X82000Y-42000
X82000Y-43000
X82000Y-45500
X82000Y-48500
X82500Y-13000
X82500Y-16000
X82500Y-65500
X82500Y-68500
X82500Y-71000
X82500Y-72000
X83500Y-13000
X83500Y-16000
X84000Y-82500
X85000Y-20000
X85000Y-22000
X85000Y-78000
X85000Y-80000
X86500Y-7500
X86500Y-10500
X86500Y-29000
X86500Y-34000
X86500Y-38500
X86500Y-43500
X86500Y-48000
X86500Y-53000
X86500Y-57500
X86500Y-62500
X86500Y-67000
X86500Y-72000
X88000Y-26000
X88000Y-36000
X88000Y-45000
X88000Y-54500
X88000Y-64000
X88000Y-73500
X88000Y-82500
X88500Y-29000
X88500Y-34000
X88500Y-38500
X88500Y-43500
X88500Y-48000
X88500Y-53000
X88500Y-57500
X88500Y-62500
X88500Y-67000
X88500Y-72000
X90000Y-20000
X90000Y-22000
X90000Y-78000
X90000Y-80000
X90500Y-9500
X90500Y-10500
X91000Y-26000
X91000Y-36000
X91000Y-45000
X91000Y-54500
X91000Y-64000
X91000Y-73500
X91000Y-82500
T4
X29500Y-32618
X29500Y-42118
X31500Y-32618
X31500Y-42118
X33500Y-32618
X33500Y-42118
X39500Y-32618
X39500Y-42118
X41500Y-32618
X41500Y-42118
X43500Y-32618
X43500Y-42118
X48500Y-32618
X48500Y-42118
X50500Y-32618
X50500Y-42118
X52500Y-32618
X52500Y-42118
X58000Y-32618
X58000Y-42118
X60000Y-32618
X60000Y-42118
X62000Y-32618
X62000Y-42118
X67000Y-32618
X67000Y-42118
X69000Y-32618
X69000Y-42118
X71000Y-32618
X71000Y-42118
X76000Y-32618
X76000Y-42118
X78000Y-32618
X78000Y-42118
X80000Y-32618
X80000Y-42118
T5
X67500Y-5000
X68500Y-6000
X70500Y-5000
X72500Y-6000
X73500Y-5000
X76500Y-5000
X77500Y-6000
X79500Y-5000
X81500Y-6000
X82500Y-5000
X85500Y-5000
X86500Y-6000
X88500Y-5000
X90500Y-6000
X91500Y-5000
T6
X68500Y-1000
X72500Y-1000
X77500Y-1000
X81500Y-1000
X86500Y-1000
X90500Y-1000
T7
X29000Y-1000
X29000Y-82500
X93000Y-82500
X93500Y-7000
T8
X29500Y-4500
X29500Y-14000
X57000Y-4500
X57000Y-14000
T3
X30240Y-48579G85X30240Y-49484
G05
X30319Y-71335G85X30319Y-72240
G05
X32287Y-46610G85X32287Y-47516
G05
X32287Y-73327G85X32287Y-74232
G05
X40240Y-48579G85X40240Y-49484
G05
X40319Y-71335G85X40319Y-72240
G05
X42287Y-46610G85X42287Y-47516
G05
X42287Y-73327G85X42287Y-74232
G05
X49240Y-48579G85X49240Y-49484
G05
X49319Y-71335G85X49319Y-72240
G05
X51287Y-46610G85X51287Y-47516
G05
X51287Y-73327G85X51287Y-74232
G05
X58740Y-48579G85X58740Y-49484
G05
X58819Y-71335G85X58819Y-72240
G05
X60787Y-46610G85X60787Y-47516
G05
X60787Y-73327G85X60787Y-74232
G05
X68240Y-48579G85X68240Y-49484
G05
X68319Y-71335G85X68319Y-72240
G05
X70287Y-46610G85X70287Y-47516
G05
X70287Y-73327G85X70287Y-74232
G05
X76740Y-48579G85X76740Y-49484
G05
X76819Y-71335G85X76819Y-72240
G05
X78787Y-46610G85X78787Y-47516
G05
X78787Y-73327G85X78787Y-74232
G05
T0
M30
